<svg xmlns="http://www.w3.org/2000/svg" width="75" height="25" viewBox="0 0 75.49 24"><title>Ital Passion</title><path fill="#cbc5bd" d="M75.37 15.73a.81.81 0 0 0-.37-.33.87.87 0 0 0-.87 0 .82.82 0 0 0-.33.33.9.9 0 0 0 0 .89.84.84 0 0 0 .33.33.89.89 0 0 0 .87.05.83.83 0 0 0 .33-.33.9.9 0 0 0 0-.89zm-.13.82a.7.7 0 0 1-.27.28.74.74 0 0 1-.74 0 .71.71 0 0 1-.27-.28.75.75 0 0 1 0-.74.69.69 0 0 1 .28-.28.73.73 0 0 1 .73 0 .68.68 0 0 1 .28.28.75.75 0 0 1 0 .74zm-.49-.26l-.08-.05a.29.29 0 0 0 .2-.09A.26.26 0 0 0 75 16a.25.25 0 0 0 0-.14.24.24 0 0 0-.12-.09.78.78 0 0 0-.24 0h-.33v1h.15v-.41h.09a.2.2 0 0 1 .12 0 .77.77 0 0 1 .16.22l.08.15H75l-.12-.19a1.1 1.1 0 0 0-.12-.24zm-.2-.16h-.19v-.29h.33a.14.14 0 0 1 .07.05.13.13 0 0 1 0 .08.13.13 0 0 1 0 .11.3.3 0 0 1-.2.05zm-51.33-15c1.85 0 2.32-.13 2.32-.57s-.21-.37-.44-.37a17.32 17.32 0 0 1-4 .6c-5.79-.17-14.83 2-14.83 7.9 0 2.5 1.41 3.87 3.45 3.87a4.76 4.76 0 0 0 4.41-4.9 6 6 0 0 0-.16-1.27l-.29.07a5.23 5.23 0 0 1 .13 1.27c0 2.27-2.06 4.43-4 4.43-1.38 0-2.27-1.07-2.27-2.93 0-7.23 10-8 14.67-8v.07c-3.24 1.53-6.08 7.3-7.73 10.44s-4.91 11.84-10 11.84c-2.14 0-3.5-1.57-3.18-3.13.55.13 1-.47 1-1.17S1.85 18 1.28 18C.5 18 0 18.84 0 19.78a4.18 4.18 0 0 0 4.41 4.13c5 0 8.46-5 11.41-11.57s5.64-11.23 7.41-11.23zm1 19.79c-.18 0-.28-.15-.28-.41 0-.8.83-2.08 5.42-10.94h-.9c-2.61 5.33-4 7.69-4.59 9.09C22.92 20 22 20.9 21.5 20.9c-.23 0-.35-.13-.35-.43 0-.77 1.18-2.89 2.44-5.15h-.83l-.42 1c-.09-.56-.39-1.1-1.08-1.1-1.11 0-2.56 1.72-3.16 3.33-.91 1.23-2 2.38-2.77 2.38a.5.5 0 0 1-.55-.56c0-.79.78-2 2.16-4.82h1.72l.08-.2H17l1-1.9h-.77l-1 1.9h-.72l-.08.2h.69c-1 1.94-1.91 3.38-1.91 4.4a1 1 0 0 0 1 1.18c.85 0 1.84-1 2.75-2.23a3.56 3.56 0 0 0-.17 1c0 .64.23 1.23.86 1.23s1.7-1.1 2.14-1.72a3.1 3.1 0 0 0-.18.9.71.71 0 0 0 .72.8c.67 0 1.5-.86 2.27-1.94a3.09 3.09 0 0 0-.23 1.1c0 .49.22.84.74.84s1.08-.44 1.91-1.44a20.12 20.12 0 0 0 2-3l-.14-.07C26.59 19 25 20.9 24.2 20.9zM19 20.7c-.3 0-.46-.29-.46-.79 0-2 1.75-4.53 2.76-4.53.32 0 .58.28.58.77.02 1.94-1.99 4.55-2.88 4.55zm42.2-7.35c.24 0 .41-.23.41-.54a.43.43 0 1 0-.82 0c0 .31.21.54.41.54zm10.28 6c-.85 1.1-1.44 1.54-2 1.54-.24 0-.36-.16-.36-.46 0-.84 2-3.22 2-4.28 0-.56-.3-1-.81-1-1.17 0-2.41 2.07-3.13 3.17l1.7-3h-.83c-.25.53-.56 1.15-.89 1.81a1.44 1.44 0 0 1-1 .44 1 1 0 0 1-1-1c0-.84-.44-1.41-1.13-1.41-1.45 0-2.91 1.91-3.41 3.42-.84 1.15-1.88 2.29-2.5 2.29-.19 0-.27-.15-.27-.43 0-.57.68-1.69 2.56-5.15h-.82c-.68 1.31-1.18 2.22-1.53 2.92a5.65 5.65 0 0 1-3.39 2.69 1.9 1.9 0 0 0 1.26-1.74 4.1 4.1 0 0 0-.31-1.44 3.79 3.79 0 0 1-.32-1.35c0-.54.24-1 .73-1s.62.33.62.77a2.66 2.66 0 0 1-.19.9.77.77 0 0 0 .81-.82 1 1 0 0 0-1.16-1 1.44 1.44 0 0 0-1.43 1.54A4.43 4.43 0 0 0 55 18a4.56 4.56 0 0 1 .27 1.31c0 .8-.35 1.61-1.07 1.61a1.07 1.07 0 0 1-1.1-1.15.79.79 0 0 1 .24-.67c0 .2.14.34.33.34s.36-.26.36-.56-.18-.49-.44-.49c-.49 0-.81.54-.81 1.12v.07a4.31 4.31 0 0 1-2.34 1.37 1.9 1.9 0 0 0 1.26-1.74 4.1 4.1 0 0 0-.31-1.44 3.78 3.78 0 0 1-.39-1.4c0-.54.24-1 .73-1s.62.33.62.77a2.66 2.66 0 0 1-.19.9.77.77 0 0 0 .81-.82 1 1 0 0 0-1.16-1 1.43 1.43 0 0 0-1.43 1.54A4.43 4.43 0 0 0 50.7 18a4.55 4.55 0 0 1 .3 1.29c0 .8-.35 1.61-1.07 1.61a1.07 1.07 0 0 1-1.1-1.15.79.79 0 0 1 .24-.67c0 .2.14.34.33.34s.36-.26.36-.56-.18-.49-.44-.49c-.49 0-.81.54-.81 1.12v.18c-.64.76-1.21 1.23-1.57 1.23s-.35-.13-.35-.43c0-.77 1.18-2.89 2.44-5.15h-.83l-.42 1c-.12-.56-.41-1.1-1.1-1.1-1.44 0-3.44 2.89-3.44 4.68 0 .64.23 1.23.86 1.23s1.7-1.1 2.14-1.72a4.59 4.59 0 0 0-.15.92.71.71 0 0 0 .72.8c.51 0 1.12-.51 1.72-1.23A1.4 1.4 0 0 0 50 21.09a4 4 0 0 0 2.8-1.37 1.41 1.41 0 0 0 1.47 1.37 4.7 4.7 0 0 0 3.54-2.24 3.48 3.48 0 0 0-.41 1.45.71.71 0 0 0 .68.79c.7 0 1.67-1 2.49-2.08a2.65 2.65 0 0 0-.07.58c0 .9.39 1.51 1.12 1.51 1.59 0 3.18-2.35 3.54-4a1.14 1.14 0 0 0 1 .69 1.41 1.41 0 0 0 .84-.29c-.57 1.12-1.2 2.34-1.73 3.47H66c.58-1.53 2.93-5.58 4.21-5.58a.35.35 0 0 1 .37.39c0 1.08-2 3-2 4.33a.88.88 0 0 0 .86 1c.74 0 1.55-.9 2.32-2a20.54 20.54 0 0 0 1.54-2.51l-.09-.07a20.12 20.12 0 0 1-1.73 2.82zm-27 1.34c-.3 0-.46-.29-.46-.79 0-2 1.75-4.53 2.76-4.53.32 0 .58.28.58.77-.02 1.95-2.04 4.56-2.9 4.56zm17.22.2c-.33 0-.51-.34-.51-.92 0-1.74 1.71-4.59 2.79-4.59.37 0 .55.36.55.82-.02 1.63-1.53 4.7-2.85 4.7zM51.87 1.34a4.1 4.1 0 0 1 1 3.11c0 3.48-1.85 7.22-3.63 7.22-.55 0-.94-.33-.94-1.1a1.42 1.42 0 0 1 .31-.87.84.84 0 0 0-.68-.53c-.52 0-.89.53-.89 1.17a1.69 1.69 0 0 0 1.88 1.74c2.32 0 5.35-2.94 5.35-6.32a6.36 6.36 0 0 0-1.82-4.56c1.83 0 2.3-.13 2.3-.57s-.21-.37-.44-.37a14 14 0 0 0-2.1.72 3.71 3.71 0 0 0-.45-.32 6.36 6.36 0 0 0-3-.67C41 0 33.93 7.33 33.93 13.44c0 2.3 1.23 4.17 3.05 4.17 2.95 0 5.14-4.07 5.14-7.4V8.94h-.31v1.26c0 3.13-2.09 7-4.72 7-1.51 0-2.32-1.23-2.32-3.33C34.77 5.87 42.91.4 48.6.4a5.41 5.41 0 0 1 3.11.79l-.35.14c-3.24 1.53-6.08 7.3-7.73 10.44s-4.91 11.84-10 11.84c-2.14 0-3.5-1.57-3.18-3.13.55.13 1-.47 1-1.17s-.39-1.17-1-1.17c-.78 0-1.28.8-1.28 1.73A4.18 4.18 0 0 0 33.61 24c5 0 8.46-5 11.41-11.57 2.7-6.03 5.1-10.3 6.85-11.09z"/></svg>