<svg xmlns="http://www.w3.org/2000/svg" width="70" height="10" viewBox="0 0 69.49 10.5"><title>Made by Matthieu Schatzler</title><path fill="#dcd4ca" d="M69.49 2.34l-4.58 1.3V0l-3.26 3.6L61.6 0l-3.75 3.76V0L49.5 8 55 6.47 53.4 8l5.25-1.53L57.08 8l5.3-1.54-1 4.06zM2.57 5.41L1.3 2.62H0V7.3h1.06v-3l1.12 2.54H3l1.07-2.58v3h1V2.62H3.83zm7-2.78l-2 4.68h1.21l.34-.86h2l.33.86h1.27l-2-4.68zm-.1 2.91l.68-1.73.67 1.73zm7.73-2.92h-2V7.3h2A2.32 2.32 0 0 0 19.68 5a2.3 2.3 0 0 0-2.48-2.38zm0 3.73h-.85V3.57h.79A1.3 1.3 0 0 1 18.47 5a1.26 1.26 0 0 1-1.25 1.36zm6.26-.93h2.23v-.93h-2.2v-.93H26v-.94h-3.7V7.3H26v-.93h-2.51zm12-.6a1 1 0 0 0 .8-1c0-.72-.67-1.17-1.71-1.17h-2.22V7.3h2.29c1.1 0 1.79-.5 1.79-1.3a1.15 1.15 0 0 0-.96-1.18zm-1.95-1.29h1c.35 0 .57.17.57.47s-.22.49-.57.49h-1zm1 2.85h-1v-1h1c.44 0 .71.19.71.51s-.31.5-.75.5zm6.44-1.72l-1.13-2H38.6l1.73 3.2V7.3h1.17V5.79l1.7-3.17H42z"/></svg>