<svg xmlns="http://www.w3.org/2000/svg" width="76" height="20" viewBox="0 0 152.01 39.01"><title>toscoro</title><path fill="#cbc5bd" d="M35.59 5.05L35 4.77a5.61 5.61 0 0 1 2.77-.86 3.29 3.29 0 0 1 1.14.16.54.54 0 0 1 .43.43 1 1 0 0 1-.05.27 3.91 3.91 0 0 0-1.34-.24 6.34 6.34 0 0 0-2.33.52zM33 4.77a8.66 8.66 0 0 0 4.75 1.48 4.13 4.13 0 0 0 2.12-.48 1.36 1.36 0 0 0 .81-1.21A1.46 1.46 0 0 0 40 3.29a3.83 3.83 0 0 0-2-.46 9.31 9.31 0 0 0-5 1.94zM11.06 20a3 3 0 0 1 .24 1 2.23 2.23 0 0 1-.71 1.65 2.41 2.41 0 0 1-1.68.7 2.3 2.3 0 0 1-1.82-1 3.69 3.69 0 0 0 1.58.48 2.59 2.59 0 0 0 2.41-2.45v-.25a.68.68 0 0 1 0-.18zm1.49 19l-.3-.56c2-1.69 3.53-2.54 4.67-2.54a2.16 2.16 0 0 1 1.08.38 6.35 6.35 0 0 0-2.44.6A11.79 11.79 0 0 0 13 38.64l-.46.37zm.7-26.12a3.6 3.6 0 0 0-2.71 1.46 5.13 5.13 0 0 0-1.27 3.21v.55a1.16 1.16 0 0 1-.49-1 4.4 4.4 0 0 1 .54-2 5.65 5.65 0 0 1 1.41-1.76 2.61 2.61 0 0 1 1.65-.73 1.76 1.76 0 0 1 .87.32zm7.17 24.88l-.3-.56a33.87 33.87 0 0 0 4.23-7.69A90 90 0 0 0 28 17.91l1-3.72a21.63 21.63 0 0 1 2.37-5.91 17.72 17.72 0 0 0 5.83 1.21 7.28 7.28 0 0 0 4.42-1.29 4.13 4.13 0 0 0 1.76-3.43 2.53 2.53 0 0 1 .27 1.09 3.62 3.62 0 0 1-1.9 3.07 8.18 8.18 0 0 1-4.59 1.26 13.72 13.72 0 0 1-2.33-.19 21.91 21.91 0 0 1-3.2-.89 20.3 20.3 0 0 0-2.23 5.75l-.89 3.69a85.56 85.56 0 0 1-3.91 12.13 29.75 29.75 0 0 1-4.18 7.09zm-1-23.9a7.5 7.5 0 0 1 .79 3.1 10.09 10.09 0 0 1-1.08 4.34 15.74 15.74 0 0 1-3 4.27 12.48 12.48 0 0 1-3.93 2.86 10.09 10.09 0 0 1-4.38 1.08 4.85 4.85 0 0 1-4-1.83 7 7 0 0 0 3.93 1.2 10 10 0 0 0 5.7-1.88A14.85 14.85 0 0 0 18 22.21a11.85 11.85 0 0 0 1.73-6.05 8.5 8.5 0 0 0-.33-2.29zM27 7l-.38.45a46.33 46.33 0 0 0-5.36-1.65 19.54 19.54 0 0 0-4.18-.51 12.53 12.53 0 0 0-9 3.59 14.37 14.37 0 0 0-3.33 4.74 13.4 13.4 0 0 0-1.23 5.59A15.61 15.61 0 0 0 4 22.53a8.85 8.85 0 0 1-1-3.83 13.3 13.3 0 0 1 1.14-5.24A17.09 17.09 0 0 1 7.2 8.77 12.05 12.05 0 0 1 10 6.58a15.12 15.12 0 0 1 3.2-1.43 13.06 13.06 0 0 1 3.44-.45 19.73 19.73 0 0 1 3.26.3c1.05.18 2.22.45 3.51.79S25.79 6.49 27 7zm3.84 0a17.49 17.49 0 0 0-1.65 3.1 16.81 16.81 0 0 0-.93 2.54l-1.11 4.05c-.89 3.45-1.73 6.37-2.52 8.74a46.27 46.27 0 0 1-2.45 6.15 28.34 28.34 0 0 1-2.74 4.67 3.62 3.62 0 0 0-2.57-1.57c-1.05 0-2.82.94-5.29 2.81l-.52-.78a19.88 19.88 0 0 0 2.82-2.94 45.06 45.06 0 0 0 3.12-4.6A73.43 73.43 0 0 0 20.86 22c.31-.61 1.06-2.33 2.23-5.15 1.07-2.6 1.95-4.54 2.63-5.8a34.54 34.54 0 0 1 2.66-4.21l.41-.54-.71-.24c-3-1-5-1.63-6.05-1.86a23.8 23.8 0 0 0-5-.63A14 14 0 0 0 5.74 8.79a16 16 0 0 0-2.8 4.73 13.86 13.86 0 0 0-1 5 8.67 8.67 0 0 0 1.61 5.3A4.73 4.73 0 0 0 7.42 26a5 5 0 0 0 2.36-.67 7.4 7.4 0 0 0 2.15-1.76 15.94 15.94 0 0 0 2.49-4.13 11.4 11.4 0 0 0 .95-4.21 4 4 0 0 0-.84-2.64 2.75 2.75 0 0 0-2.19-1 4.18 4.18 0 0 0-3.27 2 7.07 7.07 0 0 0-1.49 4.35q0 1.56 1.2 1.56a.75.75 0 0 0 .54-.18 1.73 1.73 0 0 0 .3-.74 1.17 1.17 0 0 1 .73 1.09 2.1 2.1 0 0 1-.68 1.56 2.2 2.2 0 0 1-1.62.67 2.42 2.42 0 0 1-2-1 4 4 0 0 1-.82-2.59 9.09 9.09 0 0 1 1.17-4.43 10.38 10.38 0 0 1 3-3.48A6.33 6.33 0 0 1 13.2 9a5.58 5.58 0 0 1 2.8.76A5.66 5.66 0 0 1 18 12a6.59 6.59 0 0 1 .73 3.12 12.49 12.49 0 0 1-1.57 6.08A13.67 13.67 0 0 1 13 25.93a9.38 9.38 0 0 1-5.4 1.83 6.65 6.65 0 0 1-5.5-2.62 10.92 10.92 0 0 1-2.09-7 17.7 17.7 0 0 1 2.44-9A18.19 18.19 0 0 1 9 2.45 17.06 17.06 0 0 1 17.92 0a21.52 21.52 0 0 1 6 .86 46.25 46.25 0 0 1 7.23 3 10.73 10.73 0 0 1 7-2.7 5.35 5.35 0 0 1 3.23.91 2.87 2.87 0 0 1 1.28 2.37 3 3 0 0 1-.74 1.92 5.12 5.12 0 0 1-2 1.46 6.55 6.55 0 0 1-2.63.54 12.68 12.68 0 0 1-2.69-.32 34.86 34.86 0 0 1-3.77-1zm13.43 9.15a9 9 0 0 0-4.07 3.25 21.2 21.2 0 0 0-3.31 6 18.84 18.84 0 0 0-1.28 6.42 4.06 4.06 0 0 0 .3 1.51h-.17c-.46 0-.7-.55-.7-1.64a19.39 19.39 0 0 1 .79-4.86 22.66 22.66 0 0 1 1.92-4.91 19.57 19.57 0 0 1 3-4.12C42 16.57 42.92 16 43.62 16a1.57 1.57 0 0 1 .65.22zM34 32c0 1.71.65 2.57 2 2.57a4.2 4.2 0 0 0 2.45-1.16 14.91 14.91 0 0 0 2.68-3 24 24 0 0 0 2.31-4.16A30.74 30.74 0 0 0 45 21.53a16.47 16.47 0 0 0 .59-4.13 3.09 3.09 0 0 0-.49-1.86 1.57 1.57 0 0 0-1.35-.67 4.61 4.61 0 0 0-2.83 1.39 17.19 17.19 0 0 0-3.06 3.65 24.55 24.55 0 0 0-2.83 6A19.88 19.88 0 0 0 34 32zm16.07-13.71a5.64 5.64 0 0 1 .66 2.56 14.76 14.76 0 0 1-1.39 6A19.49 19.49 0 0 1 46 32.19q-4.83 5.37-9.77 5.37a3.91 3.91 0 0 1-3.25-1.33 6.23 6.23 0 0 0 2.95.81A10.42 10.42 0 0 0 41 35.45a17.27 17.27 0 0 0 4.7-4.07 21.28 21.28 0 0 0 3.31-5.64 16.34 16.34 0 0 0 1.22-5.67 9.15 9.15 0 0 0-.2-1.78zM30.13 29.67a14.56 14.56 0 0 1 1.22-5.58 20.1 20.1 0 0 1 3.23-5.34A17.63 17.63 0 0 1 39 14.87a9 9 0 0 1 4.61-1.43 6 6 0 0 1 3 .75 5 5 0 0 1 2 2.16 7.4 7.4 0 0 1 .71 3.32 15.6 15.6 0 0 1-1.55 6.58 18.72 18.72 0 0 1-4.15 5.83 14.72 14.72 0 0 1-3.91 2.84A8.44 8.44 0 0 1 35.89 36a5.37 5.37 0 0 1-4.15-1.75 6.51 6.51 0 0 1-1.6-4.55zm25.57 1.57v-.35a3 3 0 0 1 .25 1.11 1.56 1.56 0 0 1-.27 1 .93.93 0 0 1-.76.38.87.87 0 0 1-.68-.38 1.64 1.64 0 0 0 1.17-.49 2 2 0 0 0 .3-1.24zm12.22-15.16a5.62 5.62 0 0 1 .3 1.57 2.16 2.16 0 0 1-.6 1.56 1.91 1.91 0 0 1-1.49.65 2.24 2.24 0 0 1-1.66-.9 3.06 3.06 0 0 0 1.33.49 2 2 0 0 0 1.58-.73A2.44 2.44 0 0 0 68 17a7.57 7.57 0 0 0-.08-.94zm-5.18-.22l-.35.54a3.94 3.94 0 0 0-.58-.08 1.94 1.94 0 0 0-2 1.81 1.66 1.66 0 0 1-.16-.65 1.47 1.47 0 0 1 .67-1.19 2.65 2.65 0 0 1 1.63-.5 4 4 0 0 1 .82.07zm1.46 10.77a6.33 6.33 0 0 1 .84 3 7 7 0 0 1-1.27 3.95 9.8 9.8 0 0 1-3.37 3 9 9 0 0 1-4.4 1.19 4.39 4.39 0 0 1-1.73-.27 4.87 4.87 0 0 1-1.55-1 6.76 6.76 0 0 0 3.07.76 8.56 8.56 0 0 0 4.34-1.14 8.92 8.92 0 0 0 3.23-3A7.65 7.65 0 0 0 64.57 29a8.64 8.64 0 0 0-.38-2.4zm-14 4.89a2.93 2.93 0 0 1 .81-2 2.48 2.48 0 0 1 1.9-.87 2.1 2.1 0 0 1 1.5.58 1.91 1.91 0 0 1 .59 1.42 1.41 1.41 0 0 1-.32.94 1.33 1.33 0 0 1-.87.49l-.44.08a.54.54 0 0 0-.51.65 1.48 1.48 0 0 0 .77 1.19 3.17 3.17 0 0 0 1.8.51 4 4 0 0 0 2.25-.67A4.84 4.84 0 0 0 59.34 32a4.89 4.89 0 0 0 .66-2.3 5.58 5.58 0 0 0-.65-2.5 14 14 0 0 0-1.11-1.71l-.28-.41a2.79 2.79 0 0 0-.3-.4c-.05-.08-.23-.33-.53-.72a7.55 7.55 0 0 1-1.83-4.45 6 6 0 0 1 1-3.35 7 7 0 0 1 2.69-2.37 7.63 7.63 0 0 1 3.66-.9 6.71 6.71 0 0 1 2.47.44 4.15 4.15 0 0 1 1.73 1.18 2.68 2.68 0 0 1 .63 1.71 1.93 1.93 0 0 1-.7 1.48 2.49 2.49 0 0 1-1.71.62 1.81 1.81 0 0 1-1.25-.41 1.21 1.21 0 0 1 .11-2 .84.84 0 0 0 .46-.51.63.63 0 0 0-.49-.57 3.9 3.9 0 0 0-1.35-.21 4.73 4.73 0 0 0-2.88.86 2.55 2.55 0 0 0-1.23 2.1 2.34 2.34 0 0 0 .23.92 8.29 8.29 0 0 0 .64 1.14c.31.45.8 1.09 1.47 1.94a17.1 17.1 0 0 1 2.44 3.64 7.68 7.68 0 0 1 .65 3.16 7 7 0 0 1-1.14 3.83 8.38 8.38 0 0 1-7.08 3.91 5.8 5.8 0 0 1-3.86-1.3 4.09 4.09 0 0 1-1.54-3.28zm37.26-15a4.34 4.34 0 0 1 .16 1A2.49 2.49 0 0 1 85.18 20a3.09 3.09 0 0 1-1.3-.38h.49a3 3 0 0 0 2.17-.84 3.15 3.15 0 0 0 .92-2.24zm-4.08 15.67l.38.56c-3.08 3.34-6.08 5-9 5A5.63 5.63 0 0 1 70.65 36a9.75 9.75 0 0 0 2 .95 5.37 5.37 0 0 0 1.84.27c3 0 6-1.68 8.91-5zM82 16l-.35.64A8.17 8.17 0 0 0 79 18.21a14.2 14.2 0 0 0-2.48 2.84 24.14 24.14 0 0 0-2.27 4.69 14.07 14.07 0 0 0-1 4.53 6.79 6.79 0 0 0 .76 2.94 2.37 2.37 0 0 1-1-1.1 4.21 4.21 0 0 1-.32-1.73 15.47 15.47 0 0 1 1.36-5.72 20 20 0 0 1 3.25-5.5A9 9 0 0 1 82 16zm0 14.14l.76 1.27a25.44 25.44 0 0 1-2.91 2.64 9.48 9.48 0 0 1-2.66 1.51 8.56 8.56 0 0 1-2.77.46 7.08 7.08 0 0 1-3.54-.89 5.87 5.87 0 0 1-2.42-2.51 7.58 7.58 0 0 1-.84-3.7 13.31 13.31 0 0 1 1.25-5.61 18.09 18.09 0 0 1 3.36-5.05A16.81 16.81 0 0 1 77 14.65a11.48 11.48 0 0 1 5.29-1.35 6.4 6.4 0 0 1 2.25.38 3.89 3.89 0 0 1 1.58 1.1 2.51 2.51 0 0 1 .57 1.57 2.17 2.17 0 0 1-.69 1.59 2.39 2.39 0 0 1-1.71.67 1.64 1.64 0 0 1-1.17-.46 1.29 1.29 0 0 1-.52-1.05 1.38 1.38 0 0 1 .81-1.24.42.42 0 0 0 .28-.32c0-.44-.37-.65-1.09-.65a6.63 6.63 0 0 0-3.53 1.27 13.48 13.48 0 0 0-3.47 3.4A22.1 22.1 0 0 0 72.7 25a15.5 15.5 0 0 0-1.17 5.4 4.1 4.1 0 0 0 1 2.91 3.33 3.33 0 0 0 2.61 1.11c2.06 0 4.36-1.43 6.92-4.29zm18.23-13.95a8.89 8.89 0 0 0-4.06 3.21 21 21 0 0 0-3.31 6 18.84 18.84 0 0 0-1.28 6.42 3.88 3.88 0 0 0 .3 1.51h-.17c-.46 0-.7-.55-.7-1.64a19.31 19.31 0 0 1 .78-4.86 23.15 23.15 0 0 1 1.93-4.91 18.9 18.9 0 0 1 3-4.12C98 16.57 98.94 16 99.63 16a1.57 1.57 0 0 1 .65.22zM90 32c0 1.71.65 2.57 2 2.57a4.18 4.18 0 0 0 2.44-1.16 15 15 0 0 0 2.69-3 24 24 0 0 0 2.31-4.16 30.74 30.74 0 0 0 1.56-4.72 17 17 0 0 0 .59-4.13 3.16 3.16 0 0 0-.49-1.86 1.58 1.58 0 0 0-1.35-.67 4.59 4.59 0 0 0-2.83 1.39 17.21 17.21 0 0 0-3.07 3.65 24.52 24.52 0 0 0-2.82 6A19.58 19.58 0 0 0 90 32zm16.12-13.68a5.64 5.64 0 0 1 .66 2.56 14.92 14.92 0 0 1-1.39 6 20 20 0 0 1-3.39 5.31c-3.23 3.58-6.48 5.37-9.78 5.37a4.62 4.62 0 0 1-1.75-.27 4.68 4.68 0 0 1-1.5-1.06 6.27 6.27 0 0 0 3 .81 10.45 10.45 0 0 0 5.16-1.59 17.23 17.23 0 0 0 4.69-4.07 20.75 20.75 0 0 0 3.31-5.64 16.11 16.11 0 0 0 1.22-5.67 9.09 9.09 0 0 0-.19-1.78zM86.16 29.67a14.37 14.37 0 0 1 1.22-5.58 20.07 20.07 0 0 1 3.22-5.34 18 18 0 0 1 4.4-3.88 9.07 9.07 0 0 1 4.62-1.43 6 6 0 0 1 3 .75 5.11 5.11 0 0 1 2 2.16 7.53 7.53 0 0 1 .7 3.32 15.73 15.73 0 0 1-1.54 6.58 18.72 18.72 0 0 1-4.15 5.83 14.87 14.87 0 0 1-3.91 2.84A8.48 8.48 0 0 1 91.91 36a5.34 5.34 0 0 1-4.15-1.75 6.47 6.47 0 0 1-1.6-4.55zM112 17.54h-.76L111 17a.34.34 0 0 0 .18 0h.14a.63.63 0 0 1 .62.55zm14.83-2.21a3.91 3.91 0 0 1 .24 1.15 3.16 3.16 0 0 1-.81 2.11 2.52 2.52 0 0 1-1.85.94 2.66 2.66 0 0 1-.92-.22 3.71 3.71 0 0 0 1.79-.56 3.11 3.11 0 0 0 1.17-1.19 3.56 3.56 0 0 0 .4-1.7v-.53zm-13.08 20.9l-.3.9h-4.64a1.86 1.86 0 0 0-1 .19 1.5 1.5 0 0 0-.48.86l-.33-.57a1.79 1.79 0 0 1 .65-.92 2.84 2.84 0 0 1 1.28-.21H113l.21-.6q1-3 2.28-6.09c.8-1.91 1.61-3.71 2.45-5.4a32 32 0 0 1 3.77-6l.28.46a26.27 26.27 0 0 0-2.77 4.33c-1 1.95-2 4-2.91 6.14s-1.81 4.49-2.6 6.95zm-7.53.33l-.35-.16c.34-1 .78-2.21 1.31-3.57q1.05-2.8 2.52-6.2l1.68-4a25 25 0 0 0 1.77-4.91c0-1.15-.76-1.73-2.26-1.73a6.78 6.78 0 0 0-.73 0l.7-1.54h3.91c1.86 0 3-.47 3.51-1.39l.4.34a51.15 51.15 0 0 1-1.87 4.91q-2.33 5.42-3.94 8.86c-.38.88-.62 1.45-.75 1.72a5.66 5.66 0 0 1-.25.51c-.11.21-.24.49-.38.81a4.48 4.48 0 0 0-.22.65.34.34 0 0 0 .32.36h.09l.44-.06.25-.56q1.05-2.46 3-6.42 5.27-10.77 9.25-10.77a1.33 1.33 0 0 1 1.06.46 1.85 1.85 0 0 1 .41 1.21 3.19 3.19 0 0 1-.82 2.14 2.41 2.41 0 0 1-1.87.94.77.77 0 0 1-.59-.27.67.67 0 0 1-.31-.54.88.88 0 0 1 .06-.3 1.45 1.45 0 0 1 0-.17.45.45 0 0 0 0-.09.33.33 0 0 0-.32-.34h-.09q-.95 0-3.39 4.18c-1 1.69-2 3.7-3 6s-2.15 5-3.31 8.08l-.24.64h-3.31a6.32 6.32 0 0 0-1.17.09 1.8 1.8 0 0 0-.76.29 5.85 5.85 0 0 0-.77.76zm32.05-20.37a8.94 8.94 0 0 0-4.06 3.21 21.2 21.2 0 0 0-3.31 6 18.84 18.84 0 0 0-1.28 6.42 3.88 3.88 0 0 0 .3 1.51h-.17c-.46 0-.7-.55-.7-1.64a19.39 19.39 0 0 1 .79-4.86 22.66 22.66 0 0 1 1.92-4.91 19.57 19.57 0 0 1 3-4.12c1.18-1.19 2.12-1.79 2.83-1.79a1.54 1.54 0 0 1 .64.22zM127.92 32c0 1.71.65 2.57 2 2.57a4.2 4.2 0 0 0 2.45-1.16 14.91 14.91 0 0 0 2.68-3 24 24 0 0 0 2.31-4.16 30.74 30.74 0 0 0 1.63-4.69 16.47 16.47 0 0 0 .59-4.13 3.16 3.16 0 0 0-.49-1.86 1.57 1.57 0 0 0-1.35-.67 4.61 4.61 0 0 0-2.83 1.39 17.19 17.19 0 0 0-3.06 3.65 24.55 24.55 0 0 0-2.83 6 19.88 19.88 0 0 0-1.06 6zM144 18.29a5.64 5.64 0 0 1 .66 2.56 14.76 14.76 0 0 1-1.39 6 19.49 19.49 0 0 1-3.39 5.32q-4.83 5.37-9.77 5.37a4.68 4.68 0 0 1-1.76-.27 4.55 4.55 0 0 1-1.49-1.06 6.23 6.23 0 0 0 2.95.81 10.42 10.42 0 0 0 5.19-1.57 17.27 17.27 0 0 0 4.7-4.07 21 21 0 0 0 3.3-5.64 16.15 16.15 0 0 0 1.23-5.67 9.15 9.15 0 0 0-.2-1.78zm-19.9 11.38a14.56 14.56 0 0 1 1.22-5.58 20.07 20.07 0 0 1 3.22-5.34 17.85 17.85 0 0 1 4.38-3.88 9 9 0 0 1 4.61-1.43 6 6 0 0 1 3 .75 5 5 0 0 1 2 2.16 7.53 7.53 0 0 1 .71 3.32 15.6 15.6 0 0 1-1.55 6.58 18.72 18.72 0 0 1-4.15 5.83 14.72 14.72 0 0 1-3.91 2.84 8.44 8.44 0 0 1-3.8 1.05 5.37 5.37 0 0 1-4.15-1.75 6.51 6.51 0 0 1-1.6-4.55zm24.31-14.19v-1.1h.99a.84.84 0 0 1 .24.07.4.4 0 0 1 .18.16.47.47 0 0 1 .07.28.56.56 0 0 1-.08.32.42.42 0 0 1-.2.17.82.82 0 0 1-.29.07h-.91zm-.55-1.54v3.47h.55v-1.49h.59l.95 1.49h.58l-1-1.53a1.18 1.18 0 0 0 .66-.26.82.82 0 0 0 .26-.69.9.9 0 0 0-.3-.74 1.39 1.39 0 0 0-.92-.25zm-1.3 1.72a2.53 2.53 0 0 1 .19-1 2.39 2.39 0 0 1 .51-.79 2.34 2.34 0 0 1 .79-.53 2.29 2.29 0 0 1 1-.2 2.47 2.47 0 0 1 1.74.73 2.42 2.42 0 0 1 .52.79 2.73 2.73 0 0 1 .19 1 2.8 2.8 0 0 1-.19 1 2.57 2.57 0 0 1-.52.8 2.37 2.37 0 0 1-1.74.73 2.45 2.45 0 0 1-1-.19 2.38 2.38 0 0 1-1.3-1.34 2.61 2.61 0 0 1-.19-1zm-.54 0a2.91 2.91 0 0 0 .24 1.19 3 3 0 0 0 .65.95 3.06 3.06 0 0 0 .95.62 3.29 3.29 0 0 0 1.17.22 3.23 3.23 0 0 0 1.16-.22 3.18 3.18 0 0 0 .95-.62 3.12 3.12 0 0 0 .64-.95 2.91 2.91 0 0 0 .24-1.19 2.83 2.83 0 0 0-.24-1.16 3.07 3.07 0 0 0-.64-.94 3.18 3.18 0 0 0-.95-.62 3.06 3.06 0 0 0-3.28.62 2.93 2.93 0 0 0-.65.94 2.83 2.83 0 0 0-.24 1.16z"/></svg>